<?xml version="1.0" standalone="no"?>
<!DOCTYPE svg PUBLIC "-//W3C//DTD SVG 20010904//EN"
 "http://www.w3.org/TR/2001/REC-SVG-20010904/DTD/svg10.dtd">
<svg version="1.0" xmlns="http://www.w3.org/2000/svg"
 width="260.000000pt" height="260.000000pt" viewBox="0 0 260.000000 260.000000"
 preserveAspectRatio="xMidYMid meet">
<metadata>
Created by potrace 1.11, written by Peter Selinger 2001-2013
</metadata>
<g transform="translate(0.000000,260.000000) scale(0.100000,-0.100000)"
fill="#000000" stroke="none">
<path d="M0 1300 l0 -1300 1300 0 1300 0 0 1300 0 1300 -1300 0 -1300 0 0
-1300z m1159 1090 c41 -20 81 -85 81 -128 0 -34 -25 -88 -49 -104 -21 -15 -21
-15 46 -211 38 -108 71 -197 74 -197 3 0 33 87 68 193 l63 194 -27 39 c-23 34
-26 47 -23 96 5 62 27 96 80 124 60 31 144 6 185 -55 45 -67 20 -173 -47 -201
-17 -7 -30 -13 -30 -14 10 -67 69 -388 72 -392 3 -2 40 37 84 88 115 135 106
120 88 157 -56 113 85 237 194 171 100 -61 92 -195 -14 -244 l-41 -19 -99
-270 c-54 -148 -103 -275 -109 -282 -8 -10 -35 -9 -130 1 -156 18 -477 18
-635 0 -69 -7 -128 -11 -132 -7 -4 3 -51 130 -106 281 l-100 274 -39 17 c-48
20 -80 59 -89 105 -9 48 2 79 40 121 28 31 40 37 88 41 50 4 58 2 90 -27 61
-53 69 -100 34 -181 -4 -10 14 -38 50 -80 91 -105 136 -152 140 -148 3 4 84
382 84 394 0 2 -8 4 -18 4 -23 0 -67 46 -81 83 -16 43 -13 78 12 121 41 71
121 95 196 56z m474 -1165 c91 -9 148 -20 167 -32 43 -25 63 -75 68 -170 l5
-83 -568 0 -568 0 6 79 c6 90 35 166 69 181 79 36 580 51 821 25z m-963 -555
l0 -50 45 0 45 0 0 -50 0 -50 -45 0 -45 0 0 -45 0 -45 -90 0 -89 0 -3 -92 -3
-93 -52 -3 -53 -3 0 240 0 241 145 0 145 0 0 -50z m540 0 l0 -50 50 0 51 0 -3
-142 -3 -143 -47 -3 -48 -3 0 -45 0 -44 -95 0 -95 0 0 44 0 45 -47 3 -48 3 -3
143 -3 142 51 0 50 0 0 50 0 50 95 0 95 0 0 -50z m550 0 l0 -50 45 0 46 0 -3
-142 -3 -143 -42 -3 c-42 -3 -42 -3 -45 -45 l-3 -42 -97 -3 -98 -3 0 46 0 45
-45 0 -45 0 0 145 0 145 45 0 45 0 0 50 0 50 100 0 100 0 0 -50z m350 -140 l0
-190 96 0 95 0 -3 -47 -3 -48 -142 -3 -143 -3 0 241 0 240 50 0 50 0 0 -190z"/>
<path d="M490 570 l0 -40 85 0 85 0 0 40 0 40 -85 0 -85 0 0 -40z"/>
<path d="M1030 475 l0 -135 85 0 85 0 0 135 0 135 -85 0 -85 0 0 -135z"/>
<path d="M1570 475 l0 -135 90 0 90 0 0 135 0 135 -90 0 -90 0 0 -135z"/>
</g>
</svg>
